<svg id="Layer_1" data-name="Layer 1" xmlns="http://www.w3.org/2000/svg" viewBox="0 0 401.6 358"><defs><style>.cls-1{fill:#feec56;}.cls-2{fill:#e15889;}.cls-3{fill:#e73705;}.cls-4{fill:#fff;}.cls-5{fill:#fe9a01;}.cls-6{fill:#c20630;}.cls-7{fill:#b20101;}.cls-8{fill:#db1359;}.cls-9{fill:#fea604;}.cls-10{fill:#c70402;}.cls-11{fill:#e72300;}</style></defs><path class="cls-1" d="M615.42,612c4.21-21.82,14.28-40.91,27.3-58.62h4c9,3.28,18.14,6.27,27,9.92A122,122,0,0,1,708.27,585a7.65,7.65,0,0,1,2.4,5q.23,61.22.14,122.44a4.74,4.74,0,0,1-.2,1c-.65-4.56-1.08-9.17-2-13.68-4-19.84-10.7-38.54-24.74-53.66C665.4,626.17,642.68,614.44,615.42,612Z" transform="translate(-513.72 -553.4)"/><path class="cls-2" d="M642.72,911.4c-6.5-11.28-13.64-22.25-19.27-33.95-3.74-7.78-5.33-16.59-7.88-24.94,24.81-2.3,46-12.67,64-29.55,13.45-12.63,21.34-28.67,26.21-46.3,1.43-5.18,3-10.33,4.43-15.49.2,2.13.57,4.26.57,6.39,0,34.46-.08,68.92.15,103.37,0,4.89-1.58,8-5.23,10.93-16.2,13.07-34.61,21.65-54.45,27.45-1.88.54-3.67,1.39-5.5,2.09Z" transform="translate(-513.72 -553.4)"/><path class="cls-3" d="M513.72,731.4c12.93-17.73,28.1-33.06,47.34-44a2.85,2.85,0,0,0,.72.12c7.42,14.74,17.38,27.23,31.59,36.08,4.3,2.68,8.27,5.89,12.4,8.86-3.85,2.57-7.69,5.16-11.55,7.72-14.43,9.56-26,21.57-32.4,38-.25,0-.51.07-.76.12C542.16,767,527,751.74,513.72,734.4Z" transform="translate(-513.72 -553.4)"/><path class="cls-4" d="M748.71,872.79V587.61c1.14-.11,2.25-.3,3.35-.3,21.49,0,43-.5,64.46.14,18.2.54,36,3.54,50.88,15.49,16,12.9,24.31,29.8,25.24,50.34,1.27,27.74-10.13,48.77-34.22,63.66,3.32,1.38,6.25,2.52,9.11,3.82s6,2.76,8.92,4.35c25.47,13.88,37.55,35.55,38.8,64.35,1.8,41.26-30.52,78.72-75.28,82.5-10.26.86-20.61.74-30.92.8C789.08,872.87,769.11,872.79,748.71,872.79Zm27.68-28.51h21.33c15.59,0,31.19.44,46.61-2.79,28.3-5.92,46-32.35,40.47-60.67-4.24-21.74-24-39.23-48.49-42.45-10.77-1.41-21.63-2.19-32.64-3.27V706.33c5.42-.64,10.8-1.17,16.14-1.92,18-2.54,32.08-11,39.56-28,9-20.5,4.94-50.39-26.59-58-18.39-4.45-37-2-55.6-2.37-.24,0-.49.4-.79.67Z" transform="translate(-513.72 -553.4)"/><path class="cls-5" d="M615.42,612c27.26,2.42,50,14.15,68.47,34.07,14,15.12,20.76,33.82,24.74,53.66.9,4.51,1.33,9.12,2,13.68q0,9.39.08,18.79a1.31,1.31,0,0,1-.68,0,2.74,2.74,0,0,0-.32-.82c-14.25-21.51-32.74-38.28-56.37-48.77-8.1-3.6-17-5.36-25.57-7.95-1.42-1.28-3.52-2.28-4.15-3.86-4.88-12.47-10.25-24.87-9.85-38.68.19-6.61.64-13.21,1-19.82A1,1,0,0,1,615.42,612Z" transform="translate(-513.72 -553.4)"/><path class="cls-6" d="M710.18,761.17c-1.48,5.16-3,10.31-4.43,15.49-4.87,17.63-12.76,33.67-26.21,46.3-18,16.88-39.16,27.25-64,29.55a1.39,1.39,0,0,1-.76-.39,39.19,39.19,0,0,0-.18-5,72,72,0,0,1,1.88-33.34c2.44-7.88,5.43-15.58,8.17-23.36l1.05-.11a102.9,102.9,0,0,0,47.91-19.16,160.75,160.75,0,0,0,37.08-37.81l-.15,19-.39,7.15Z" transform="translate(-513.72 -553.4)"/><path class="cls-7" d="M710.72,733.37a160.75,160.75,0,0,1-37.08,37.81,102.9,102.9,0,0,1-47.91,19.16,65.67,65.67,0,0,1,3.21-6.65c10.49-16.83,25.51-28.78,43-37.15,12.17-5.8,25.31-9.59,38-14.29a1.31,1.31,0,0,0,.68,0Z" transform="translate(-513.72 -553.4)"/><path class="cls-2" d="M710.18,759.5l.39-7.15Z" transform="translate(-513.72 -553.4)"/><path class="cls-8" d="M624.68,790.45c-2.74,7.78-5.73,15.48-8.17,23.36a72,72,0,0,0-1.88,33.34,39.19,39.19,0,0,1,.18,5C593,854,572.1,850.06,551.75,842.6c-1.38-.5-2.79-3.11-2.82-4.76a137.91,137.91,0,0,1,12.13-59.58c.25,0,.51-.09.76-.12,7.28,3.09,14.41,6.66,21.88,9.16C597,791.77,610.89,791,624.68,790.45Z" transform="translate(-513.72 -553.4)"/><path class="cls-9" d="M614.73,612.35c-.34,6.61-.79,13.21-1,19.82-.4,13.81,5,26.21,9.85,38.68.63,1.58,2.73,2.58,4.15,3.85-10.24.21-20.53-.13-30.71.77a75.75,75.75,0,0,0-35.26,12,2.85,2.85,0,0,1-.72-.12c-3.29-10.95-7.33-21.74-9.63-32.89-1.93-9.36-2-19.12-2.47-28.73-.07-1.37,1.64-3.63,3-4.15a155.19,155.19,0,0,1,49.66-9.8l1.14-.12Z" transform="translate(-513.72 -553.4)"/><path class="cls-1" d="M602.78,611.7l-1.14.12Z" transform="translate(-513.72 -553.4)"/><path class="cls-10" d="M624.68,790.45c-13.79.58-27.66,1.32-41-3.15-7.47-2.5-14.6-6.07-21.88-9.16,6.42-16.4,18-28.41,32.4-38,3.86-2.56,7.7-5.15,11.55-7.72a6.38,6.38,0,0,0,1.45-.34c23.9-11.86,49-13,74.6-7.78,9.38,1.91,18.58,4.71,27.87,7.1a2.74,2.74,0,0,1,.32.82c-12.71,4.7-25.85,8.49-38,14.29-17.54,8.37-32.56,20.32-43,37.15a65.67,65.67,0,0,0-3.21,6.65Z" transform="translate(-513.72 -553.4)"/><path class="cls-11" d="M709.69,731.43c-9.29-2.39-18.49-5.19-27.87-7.1-25.63-5.23-50.7-4.08-74.6,7.78a6.38,6.38,0,0,1-1.45.34c-4.13-3-8.1-6.18-12.4-8.86-14.21-8.85-24.17-21.34-31.59-36.08a75.75,75.75,0,0,1,35.26-12c10.18-.9,20.47-.56,30.71-.77,8.55,2.6,17.47,4.36,25.57,8C677,693.15,695.44,709.92,709.69,731.43Z" transform="translate(-513.72 -553.4)"/></svg>