<svg id="Layer_1" data-name="Layer 1" xmlns="http://www.w3.org/2000/svg" viewBox="0 0 1301 358"><defs><style>.cls-1{fill:#fff;}.cls-2{fill:#feec56;}.cls-3{fill:#e15889;}.cls-4{fill:#e73705;}.cls-5{fill:#fe9a01;}.cls-6{fill:#c20630;}.cls-7{fill:#b20101;}.cls-8{fill:#db1359;}.cls-9{fill:#fea604;}.cls-10{fill:#c70402;}.cls-11{fill:#e72300;}</style></defs><path class="cls-1" d="M1382.1,852.45c-8.48.13-17,.39-25.44.24-1.14,0-3.05-2-3.23-3.23-2-13.58-3.6-27.21-5.41-40.82-2.17-16.21-4.45-32.4-6.63-48.61-1.86-13.77-3.62-27.55-5.46-41.32-2.17-16.21-4.4-32.42-6.59-48.64-.83-6.15-1.63-12.3-2.63-19.88-3.52,7.17-6.52,13.14-9.42,19.16q-41.58,86.39-83.13,172.78c-1,2.1-2.13,4.16-3,6.34-1.09,2.87-2.45,4.52-6.08,4.54s-4.74-1.78-6.06-4.52q-47.38-98.26-94.92-196.44c-.35-.72-.77-1.39-1.78-3.23l-27.08,203.76h-27.57q19.9-142.76,39.69-284.64c4-1.52,5.74,0,7.3,3.22q46.36,96.54,92.92,193,7.68,15.92,15.43,31.81c.63,1.3,1.39,2.53,2.38,4.31,10.1-21.17,19.94-41.8,29.79-62.41q39.84-83.34,79.64-166.7c1.42-3,2.94-4.77,7.13-3.23,1,7.43,2.17,15.39,3.29,23.35q3.79,26.75,7.58,53.48c2.14,15.22,4.22,30.45,6.35,45.67,2.5,17.83,5,35.66,7.54,53.49,2.16,15.39,4.26,30.78,6.41,46.16,2.17,15.55,4.34,31.09,6.6,46.63.62,4.27,1.55,8.51,2.34,12.76Z" transform="translate(-81.1 -533.45)"/><path class="cls-2" d="M182.79,592.07c4.21-21.82,14.28-40.9,27.31-58.62h4c9,3.29,18.14,6.27,27,9.92A121.91,121.91,0,0,1,275.64,565a7.61,7.61,0,0,1,2.4,5q.22,61.23.14,122.45a5,5,0,0,1-.19,1c-.65-4.57-1.08-9.18-2-13.69-4-19.84-10.69-38.53-24.74-53.66C232.78,606.23,210.06,594.5,182.79,592.07Z" transform="translate(-81.1 -533.45)"/><path class="cls-3" d="M210.1,891.45c-6.5-11.28-13.64-22.25-19.28-34-3.74-7.77-5.33-16.59-7.88-24.93,24.81-2.31,46-12.68,64-29.56,13.45-12.63,21.34-28.67,26.21-46.3,1.43-5.17,3-10.32,4.44-15.48.2,2.13.57,4.26.57,6.38,0,34.46-.09,68.92.15,103.37,0,4.89-1.59,8-5.24,10.94-16.2,13.07-34.6,21.65-54.45,27.44-1.87.55-3.66,1.39-5.49,2.09Z" transform="translate(-81.1 -533.45)"/><path class="cls-4" d="M81.1,711.45c12.93-17.73,28.1-33.05,47.33-44a3,3,0,0,0,.72.12c7.42,14.75,17.38,27.23,31.59,36.08,4.3,2.68,8.28,5.89,12.4,8.86-3.85,2.58-7.69,5.17-11.55,7.72-14.43,9.56-26,21.57-32.39,38-.26,0-.52.07-.77.12-18.89-11.26-34.08-26.52-47.33-43.86Z" transform="translate(-81.1 -533.45)"/><path class="cls-1" d="M316.08,852.84V567.66c1.15-.1,2.25-.3,3.35-.3,21.49,0,43-.49,64.47.15,18.19.54,36,3.54,50.88,15.48,16,12.91,24.3,29.81,25.24,50.35,1.26,27.74-10.13,48.76-34.22,63.65,3.32,1.39,6.24,2.53,9.1,3.82,3,1.37,6,2.77,8.93,4.35,25.46,13.88,37.54,35.56,38.8,64.35,1.79,41.26-30.53,78.73-75.29,82.5-10.26.86-20.61.74-30.92.8C356.45,852.92,336.48,852.84,316.08,852.84Zm27.68-28.51H365.1c15.59,0,31.19.44,46.6-2.78,28.31-5.93,46-32.35,40.47-60.68-4.24-21.74-24-39.23-48.48-42.44-10.78-1.42-21.63-2.19-32.64-3.28V686.39c5.41-.64,10.79-1.18,16.13-1.93,18-2.54,32.09-11,39.57-28,9-20.49,4.94-50.39-26.59-58-18.4-4.44-37.05-2-55.61-2.37-.24,0-.49.41-.79.67Z" transform="translate(-81.1 -533.45)"/><path class="cls-1" d="M834.42,613.47A112.64,112.64,0,0,0,803,651.19c-1.4,2.71-2.88,3.9-6,3.82-8.93-.23-17.88-.08-27.67-.08a152.67,152.67,0,0,1,38-57.32,105,105,0,0,0-31-8.49c-37.7-4.07-69.75,8.31-96.11,34.9-8,8-13.52,18.39-20.28,27.62-1,1.31-2.45,3.11-3.74,3.15-9.61.27-19.23.14-30.6.14,5.59-10.45,10-20.26,15.78-29.19,23.1-35.66,55.88-57.51,97.75-64.15,32-5.06,63-.55,92.11,14.58a7.87,7.87,0,0,0,6.24.11,150.44,150.44,0,0,1,58.44-16.06c65.47-4.44,121.06,32.94,145.41,89.88.56,1.31.88,2.74,1.53,4.82-10.48,0-20.41.09-30.33-.12-1,0-2.35-1.61-3-2.77-19.27-35.67-49.41-55.95-89-62.73-18.22-3.13-41.28.24-59,8.32,17.07,16.16,30.52,34.57,38.79,57.3-10.45,0-20.55.12-30.63-.17-1.18,0-2.61-2.23-3.39-3.71A117,117,0,0,0,834.42,613.47Z" transform="translate(-81.1 -533.45)"/><path class="cls-1" d="M799.93,764.63a123.18,123.18,0,0,0,34.52,42.65,107.83,107.83,0,0,0,31.89-38.57c1.62-3.26,3.39-4.56,7.14-4.42,8.76.34,17.55.11,26.89.11-8.43,23-21.91,41.81-40.24,59.13,9,2.42,17,5.39,25.24,6.67,35.43,5.45,67.41-2.92,95.29-25.6a106,106,0,0,0,28.81-36.53c1.33-2.75,2.86-3.85,6-3.76,8.93.26,17.88.09,28.45.09-4.72,9.19-8.28,17.79-13.23,25.49-23.85,37.12-56.48,62-100.92,68.54-32,4.73-63.06.89-92.18-14.39a7.77,7.77,0,0,0-6.18-.13,144.55,144.55,0,0,1-61.44,16c-42.45,1.83-78.88-11.55-109.19-41.24-14.77-14.46-26.39-31.19-33.95-50.55-.41-1-.64-2.15-1.1-3.73,10,0,19.66-.14,29.27.17,1.37,0,3.11,2.07,3.92,3.59a123.49,123.49,0,0,0,46.25,48.5c15.21,9.05,31.75,13.62,49.42,14.86,17.14,1.2,33.56-1.56,49.62-7.22,1-.36,2-.92,3.52-1.62-17.59-16.44-31.09-35.22-39.47-58Z" transform="translate(-81.1 -533.45)"/><path class="cls-1" d="M508.19,567.55h27.92V825.1H642.92v27.5H508.19Z" transform="translate(-81.1 -533.45)"/><path class="cls-5" d="M182.79,592.07c27.27,2.43,50,14.16,68.47,34.07C265.31,641.27,272,660,276,679.8c.91,4.51,1.34,9.12,2,13.69q0,9.39.07,18.78a1.31,1.31,0,0,1-.68,0,2.47,2.47,0,0,0-.32-.83C262.82,690,244.33,673.2,220.7,662.71c-8.11-3.6-17-5.35-25.57-8-1.42-1.27-3.53-2.27-4.15-3.86-4.89-12.47-10.26-24.87-9.86-38.68.19-6.61.65-13.21,1-19.82A1,1,0,0,1,182.79,592.07Z" transform="translate(-81.1 -533.45)"/><path class="cls-6" d="M277.56,741.23c-1.48,5.16-3,10.31-4.44,15.48-4.87,17.63-12.76,33.67-26.21,46.3-18,16.88-39.16,27.25-64,29.56a1.58,1.58,0,0,1-.76-.39,37.29,37.29,0,0,0-.18-5,72.07,72.07,0,0,1,1.88-33.35c2.44-7.87,5.43-15.58,8.18-23.36l1.05-.11A102.84,102.84,0,0,0,241,751.23a160.47,160.47,0,0,0,37.07-37.8l-.15,19-.39,7.15Z" transform="translate(-81.1 -533.45)"/><path class="cls-1" d="M626,685.49v60.36h-8.26V669.61a50,50,0,0,0,6.37-.05c3.26-.43,4.62,1,5.7,4,7,19.21,14.18,38.35,21.31,57.51.28.75.59,1.5,1.27,3.2,4.7-12.31,9.09-23.77,13.46-35.25,2.95-7.77,6.17-15.45,8.66-23.37,1.49-4.74,3.73-7,8.78-6a32,32,0,0,0,4.11.26V746H679.5V687.65l-1.1-.3c-1.08,2.79-2.2,5.57-3.23,8.38-5.67,15.45-11.39,30.88-16.9,46.39-1,2.85-2.08,4.24-5.47,4.29-3.56.06-4.45-1.77-5.43-4.43q-9.75-26.43-19.67-52.8C627.38,688.33,627,687.52,626,685.49Z" transform="translate(-81.1 -533.45)"/><path class="cls-1" d="M831.32,669.67c10.47,0,20.48-.46,30.42.12,11.45.66,20,6.55,25.55,16.68,8.19,14.88,6.63,35.83-3.82,48.5A29.46,29.46,0,0,1,860,746.23c-9.46,0-18.92,0-28.66,0Zm8.14,69c5.35,0,10.17.13,15,0,18.83-.58,29.31-11.24,29.73-30.11.36-16.68-7.51-28.33-21.83-30.48-7.41-1.12-15.13-.2-22.88-.2Z" transform="translate(-81.1 -533.45)"/><path class="cls-1" d="M743.31,738.71h44.07v7.23H735V669.86h50.58v7.4H743.34v25.43H783v7.86h-39.7Z" transform="translate(-81.1 -533.45)"/><path class="cls-7" d="M278.09,713.43A160.47,160.47,0,0,1,241,751.23a102.84,102.84,0,0,1-47.91,19.16,65.6,65.6,0,0,1,3.2-6.65c10.49-16.83,25.51-28.78,43.05-37.14,12.18-5.81,25.31-9.6,38-14.29a1.31,1.31,0,0,0,.68,0Z" transform="translate(-81.1 -533.45)"/><path class="cls-1" d="M1054.39,745.78c-8.14,1.09-8.14,1.09-10.64-5.75-1.83-5-3.45-10.08-5.6-14.94a5.78,5.78,0,0,0-4.16-2.89c-8.48-.27-17,0-25.47-.21-2.93-.07-4,1.11-4.86,3.7-1.49,4.76-3.32,9.41-5,14.08-2.56,6.93-2.57,6.92-10.72,6.1.44-1.44.78-2.82,1.27-4.14,8.28-22.63,16.71-45.2,24.77-67.91,1.38-3.91,3.51-4.52,7-4.26,3.19.25,6-.57,7.61,4,8,23.07,16.55,46,24.89,68.91C1053.81,743.57,1054.06,744.67,1054.39,745.78Zm-46.84-30.57h27.19l-13.57-37.35C1016.38,691,1012,703,1007.55,715.21Z" transform="translate(-81.1 -533.45)"/><path class="cls-1" d="M936.5,669.75h7.74V746H936.5Z" transform="translate(-81.1 -533.45)"/><path class="cls-3" d="M277.55,739.55l.39-7.15Z" transform="translate(-81.1 -533.45)"/><path class="cls-8" d="M192.06,770.5c-2.75,7.78-5.74,15.49-8.18,23.36A72.07,72.07,0,0,0,182,827.21a37.29,37.29,0,0,1,.18,5c-21.78,1.91-42.71-2.07-63.05-9.53-1.38-.5-2.8-3.11-2.83-4.76a137.91,137.91,0,0,1,12.13-59.58c.25,0,.51-.09.77-.12,7.28,3.09,14.4,6.66,21.88,9.17C164.4,771.82,178.27,771.09,192.06,770.5Z" transform="translate(-81.1 -533.45)"/><path class="cls-9" d="M182.11,592.4c-.34,6.61-.8,13.21-1,19.82-.4,13.81,5,26.21,9.86,38.68.62,1.59,2.73,2.59,4.15,3.86-10.24.2-20.53-.13-30.72.76a75.91,75.91,0,0,0-35.26,12,3,3,0,0,1-.72-.12c-3.28-10.94-7.33-21.73-9.62-32.88-1.93-9.36-2-19.13-2.47-28.74-.08-1.36,1.63-3.63,3-4.15a155.79,155.79,0,0,1,49.66-9.8l1.15-.12Z" transform="translate(-81.1 -533.45)"/><path class="cls-2" d="M170.16,591.75l-1.15.12Z" transform="translate(-81.1 -533.45)"/><path class="cls-10" d="M192.06,770.5c-13.79.59-27.66,1.32-41-3.14-7.48-2.51-14.6-6.08-21.88-9.17,6.41-16.4,18-28.41,32.39-38,3.86-2.55,7.7-5.14,11.55-7.72a6.67,6.67,0,0,0,1.45-.33c23.9-11.87,49-13,74.61-7.79,9.38,1.91,18.58,4.71,27.86,7.1a2.47,2.47,0,0,1,.32.83c-12.71,4.69-25.84,8.48-38,14.29-17.54,8.36-32.56,20.31-43.05,37.14a65.6,65.6,0,0,0-3.2,6.65Z" transform="translate(-81.1 -533.45)"/><path class="cls-11" d="M277.06,711.48c-9.28-2.39-18.48-5.19-27.86-7.1-25.63-5.22-50.71-4.08-74.61,7.79a6.67,6.67,0,0,1-1.45.33c-4.12-3-8.1-6.18-12.4-8.86-14.21-8.85-24.17-21.33-31.59-36.08a75.91,75.91,0,0,1,35.26-12c10.19-.89,20.48-.56,30.72-.76,8.54,2.6,17.46,4.35,25.57,8C244.33,673.2,262.82,690,277.06,711.48Z" transform="translate(-81.1 -533.45)"/></svg>